<svg width="189" height="50" viewBox="0 0 189 50" fill="none" xmlns="http://www.w3.org/2000/svg">
<path d="M60.8169 27.8154V37H57.7231V13.5391H66.376C68.9434 13.5391 70.9521 14.1943 72.4023 15.5049C73.8633 16.8154 74.5938 18.5503 74.5938 20.7095C74.5938 22.9868 73.8794 24.7432 72.4507 25.9785C71.0327 27.2031 68.9971 27.8154 66.3438 27.8154H60.8169ZM60.8169 25.2856H66.376C68.0303 25.2856 69.2979 24.8989 70.1787 24.1255C71.0596 23.3413 71.5 22.2134 71.5 20.7417C71.5 19.3452 71.0596 18.228 70.1787 17.3901C69.2979 16.5522 68.0894 16.1172 66.5532 16.085H60.8169V25.2856ZM86.5015 22.2402C86.0503 22.165 85.5615 22.1274 85.0352 22.1274C83.0801 22.1274 81.7534 22.96 81.0552 24.625V37H78.0742V19.5654H80.9746L81.0229 21.5796C82.0005 20.022 83.3862 19.2432 85.1802 19.2432C85.7603 19.2432 86.2007 19.3184 86.5015 19.4688V22.2402ZM88.145 28.1216C88.145 26.4136 88.478 24.8774 89.144 23.5132C89.8208 22.1489 90.7554 21.0962 91.9478 20.355C93.1509 19.6138 94.5205 19.2432 96.0566 19.2432C98.4307 19.2432 100.348 20.0649 101.809 21.7085C103.281 23.3521 104.017 25.5381 104.017 28.2666V28.4761C104.017 30.1733 103.689 31.6987 103.034 33.0522C102.389 34.395 101.46 35.4424 100.246 36.1943C99.043 36.9463 97.6572 37.3223 96.0889 37.3223C93.7256 37.3223 91.8081 36.5005 90.3364 34.8569C88.8755 33.2134 88.145 31.0381 88.145 28.3311V28.1216ZM91.1421 28.4761C91.1421 30.4097 91.5879 31.9619 92.4795 33.1328C93.3818 34.3037 94.585 34.8892 96.0889 34.8892C97.6035 34.8892 98.8066 34.2983 99.6982 33.1167C100.59 31.9243 101.036 30.2593 101.036 28.1216C101.036 26.2095 100.579 24.6626 99.666 23.481C98.7637 22.2886 97.5605 21.6924 96.0566 21.6924C94.585 21.6924 93.3979 22.2778 92.4956 23.4487C91.5933 24.6196 91.1421 26.2954 91.1421 28.4761ZM110.833 19.5654V39.0142C110.833 42.3657 109.312 44.0415 106.272 44.0415C105.617 44.0415 105.01 43.9448 104.452 43.7515V41.3667C104.795 41.4526 105.247 41.4956 105.805 41.4956C106.471 41.4956 106.976 41.313 107.32 40.9478C107.674 40.5933 107.852 39.9702 107.852 39.0786V19.5654H110.833ZM107.545 14.9409C107.545 14.4683 107.69 14.0654 107.98 13.7324C108.281 13.3887 108.716 13.2168 109.286 13.2168C109.866 13.2168 110.306 13.3833 110.607 13.7163C110.908 14.0493 111.058 14.4575 111.058 14.9409C111.058 15.4243 110.908 15.8271 110.607 16.1494C110.306 16.4717 109.866 16.6328 109.286 16.6328C108.706 16.6328 108.271 16.4717 107.98 16.1494C107.69 15.8271 107.545 15.4243 107.545 14.9409ZM118.454 19.5654L118.535 21.499C119.813 19.9951 121.537 19.2432 123.707 19.2432C126.146 19.2432 127.805 20.1777 128.686 22.0469C129.266 21.209 130.018 20.5322 130.942 20.0166C131.876 19.501 132.978 19.2432 134.245 19.2432C138.069 19.2432 140.014 21.2681 140.078 25.3179V37H137.097V25.4951C137.097 24.249 136.812 23.3198 136.243 22.7075C135.674 22.0845 134.718 21.7729 133.375 21.7729C132.269 21.7729 131.35 22.106 130.62 22.772C129.889 23.4272 129.465 24.3135 129.347 25.4307V37H126.35V25.5757C126.35 23.0405 125.109 21.7729 122.627 21.7729C120.672 21.7729 119.335 22.6055 118.615 24.2705V37H115.634V19.5654H118.454ZM151.825 37.3223C149.461 37.3223 147.539 36.5488 146.056 35.002C144.574 33.4443 143.833 31.3657 143.833 28.7661V28.2183C143.833 26.4888 144.16 24.9473 144.815 23.5938C145.481 22.2295 146.405 21.166 147.587 20.4033C148.779 19.6299 150.068 19.2432 151.454 19.2432C153.721 19.2432 155.482 19.9897 156.739 21.4829C157.996 22.9761 158.625 25.1138 158.625 27.896V29.1367H146.813C146.856 30.8555 147.356 32.2466 148.312 33.3101C149.279 34.3628 150.503 34.8892 151.986 34.8892C153.039 34.8892 153.93 34.6743 154.661 34.2446C155.391 33.8149 156.03 33.2456 156.578 32.5366L158.399 33.9546C156.938 36.1997 154.747 37.3223 151.825 37.3223ZM151.454 21.6924C150.251 21.6924 149.241 22.1328 148.425 23.0137C147.608 23.8838 147.104 25.1084 146.91 26.6875H155.644V26.4619C155.558 24.9473 155.149 23.7764 154.419 22.9492C153.688 22.1113 152.7 21.6924 151.454 21.6924ZM164.909 19.5654L165.005 21.7568C166.337 20.0811 168.078 19.2432 170.226 19.2432C173.911 19.2432 175.769 21.3218 175.801 25.479V37H172.82V25.4629C172.81 24.2061 172.52 23.2769 171.95 22.6753C171.392 22.0737 170.516 21.7729 169.324 21.7729C168.357 21.7729 167.508 22.0308 166.778 22.5464C166.047 23.062 165.478 23.7388 165.07 24.5767V37H162.089V19.5654H164.909ZM184.341 15.3438V19.5654H187.596V21.8696H184.341V32.6816C184.341 33.3799 184.486 33.9062 184.776 34.2607C185.066 34.6045 185.561 34.7764 186.259 34.7764C186.603 34.7764 187.075 34.7119 187.677 34.583V37C186.893 37.2148 186.13 37.3223 185.389 37.3223C184.057 37.3223 183.052 36.9194 182.375 36.1138C181.699 35.3081 181.36 34.1641 181.36 32.6816V21.8696H178.186V19.5654H181.36V15.3438H184.341Z" fill="white"/>
<circle cx="25" cy="25" r="25" fill="white"/>
<path d="M25 0C11.1937 0 0 11.1937 0 25C0 38.8062 11.1937 50 25 50C38.8062 50 50 38.8062 50 25C50 11.1937 38.8062 0 25 0ZM22.9292 18.9479L29.125 12.9396C29.425 12.6479 29.8146 12.5 30.2 12.5C30.5917 12.5 30.9812 12.6521 31.2792 12.9583L22.8792 21.1062C22.2896 20.4937 22.3208 19.5396 22.9292 18.9479ZM13.575 37.3208C13.45 37.4396 13.2917 37.5 13.1333 37.5C12.7833 37.5 12.5 37.2146 12.5 36.8667C12.5 36.7021 12.5646 36.5354 12.6937 36.4125L13.7354 35.4021L14.6146 36.3104L13.575 37.3208ZM21.9792 32.35C20.0646 34.2062 18.2375 35.1271 15.7021 35.95L14.1312 34.3271C15.0333 31.8167 16.0083 30.0208 17.9208 28.1646L21.4833 24.7125L25.5375 28.8979L21.9792 32.35V32.35ZM36.4896 18.8437L27.3187 27.7375L22.6979 22.9667L31.8687 14.0708C33.9854 12.0208 37.5 13.5583 37.5 16.4583C37.5 17.325 37.1625 18.1917 36.4896 18.8437Z" fill="#194B87"/>
</svg>
